<svg viewBox="0 0 100.57 110.66" xmlns="http://www.w3.org/2000/svg" xmlns:xlink="http://www.w3.org/1999/xlink"><linearGradient id="a" gradientUnits="userSpaceOnUse" x1="56.98" x2="82.13" y1="50.15" y2="63.02"><stop offset=".11" stop-color="#304da1"/><stop offset=".24" stop-color="#3458a8"/><stop offset=".47" stop-color="#3e74bb"/><stop offset=".76" stop-color="#4ea2d9"/><stop offset="1" stop-color="#5dccf5"/></linearGradient><linearGradient id="b" gradientUnits="userSpaceOnUse" x1="43.39" x2="43.39" y1="36.84" y2="59.45"><stop offset="0" stop-color="#5dccf5"/><stop offset=".33" stop-color="#5abbe9"/><stop offset=".97" stop-color="#518fcb"/><stop offset="1" stop-color="#518dca"/></linearGradient><linearGradient id="c" gradientUnits="userSpaceOnUse" x1="52.05" x2="52.05" y1="53.54" y2="48.81"><stop offset="0" stop-color="#ffb06b"/><stop offset="1" stop-color="#e35d35"/></linearGradient><linearGradient id="d" gradientUnits="userSpaceOnUse" x1="37.89" x2="41.3" y1="36.02" y2="-6.88"><stop offset="0" stop-color="#304da1"/><stop offset="1" stop-color="#5dccf5"/></linearGradient><linearGradient id="e" gradientUnits="userSpaceOnUse" x1="53.9" x2="49.04" y1="43.97" y2="47.92"><stop offset="0" stop-color="#f68c6d"/><stop offset="1" stop-color="#e35d35"/></linearGradient><linearGradient id="f" gradientUnits="userSpaceOnUse" x1="50.21" x2="23.83" y1="86.3" y2="86.06"><stop offset="0" stop-color="#304da1"/><stop offset="1" stop-color="#304da1" stop-opacity="0"/></linearGradient><linearGradient id="g" gradientUnits="userSpaceOnUse" x1="88.11" x2="72.14" y1="50.64" y2="84.29"><stop offset="0" stop-color="#c4bba1"/><stop offset="1" stop-color="#f2ebd7"/></linearGradient><linearGradient id="h" x1="84.9" x2="88.53" xlink:href="#d" y1="87.37" y2="77.69"/><linearGradient id="i" gradientUnits="userSpaceOnUse" x1="31.55" x2="42.44" y1="86.85" y2="68.43"><stop offset="0" stop-color="#304da1"/><stop offset=".16" stop-color="#365dac"/><stop offset=".47" stop-color="#4588c8"/><stop offset=".9" stop-color="#5dccf5"/></linearGradient><g fill-rule="evenodd"><path d="m39.89 101.86a4.4 4.4 0 1 1 -3.46 7.14 4.41 4.41 0 0 1 -7.29-.54 4.4 4.4 0 1 1 -3.82-6.58h14.57" fill="#f68c6d"/><path d="m70.54 101.86a4.4 4.4 0 1 1 -3.46 7.14 4.41 4.41 0 0 1 -7.29-.54 4.4 4.4 0 1 1 -3.79-6.6z" fill="#f68c6d"/><path d="m72.76 25.23a34.6 34.6 0 0 1 2.04 11.77v27.19a34.89 34.89 0 0 1 -34.8 34.81 34.9 34.9 0 0 1 -34.8-34.8v-27.2a34.44 34.44 0 0 1 2.13-12c-4.46-6-8.98-16.4-6.73-25 28.22 12 55.1 10.07 80.25.58 1.59 7-3.86 18.67-8.09 24.65" fill="url(#a)"/><path d="m66.29 46v.55 18c0 12.68-8.51 23-18.9 23-10.39 0-18.9-10.37-18.9-23v-18c0-.18 0-.37 0-.55z" fill="#a5b2da"/><path d="m58.22 70.31c1 0 1.93-.8 1.73-1.73l-.83-3.81c-.52-2.38-1.29-2.38-1.8 0l-.84 3.81c-.2.93.78 1.73 1.74 1.73m-7.5 9.08c1 0 1.94-.8 1.73-1.73l-.83-3.81c-.52-2.38-1.28-2.38-1.8 0l-.82 3.81c-.21.93.77 1.73 1.72 1.73zm-7.35-8.64c.95 0 1.93-.8 1.73-1.73l-.83-3.81c-.52-2.38-1.29-2.38-1.81 0l-.82 3.79c-.2 1 .78 1.75 1.73 1.75z" fill="#304da1"/><path d="m31.58 17.15h23.63a19.64 19.64 0 0 1 19.59 19.59 19.65 19.65 0 0 1 -19.59 19.6h-23.63a19.66 19.66 0 0 1 -19.58-19.6 19.65 19.65 0 0 1 19.6-19.59" fill="url(#b)"/><path d="m51.7 42.91a5.63 5.63 0 0 1 4.15 1.23 4.4 4.4 0 0 1 1.45 3.66l-.06 1.2a7.07 7.07 0 0 1 -1.53 3.9 4.44 4.44 0 0 1 -3 1.82 4.44 4.44 0 0 1 -3.29-1.29 6.9 6.9 0 0 1 -2.15-3.6c-.09-.4-.16-.8-.27-1.2a33.49 33.49 0 0 1 -.06-6.29c.11-1.36 3.16.69 4.79.55" fill="url(#c)"/><path d="m52.27 44.18a4.43 4.43 0 0 0 -3.11 1.51 3 3 0 0 0 -.52 2.57l.27 1.2a5.74 5.74 0 0 0 1.7 2.87 3.38 3.38 0 0 0 2.49 1.06 3.27 3.27 0 0 0 2.27-1.39 5.59 5.59 0 0 0 1.16-3.09l.06-1.23a3 3 0 0 0 -1-2.45 4.53 4.53 0 0 0 -3.34-1" fill="#b54624"/><path d="m30.57 26.37a8.67 8.67 0 0 1 8.64 8.63v3.46a8.67 8.67 0 0 1 -8.64 8.65 8.67 8.67 0 0 1 -8.65-8.65v-3.46a8.67 8.67 0 0 1 8.65-8.64" fill="#fefefe"/><path d="m64.5 26.37a6.42 6.42 0 0 1 6.41 6.41v7.93a6.41 6.41 0 1 1 -12.82 0v-7.93a6.42 6.42 0 0 1 6.41-6.41" fill="#fefefe"/><path d="m.67 0c28.17 12 55 10 80.12.57-7.6 24.09-26.56 22.91-27.17 48.1.79-23.31-42.22-25.6-52.95-48.67" fill="url(#d)"/><path d="m27.38 41.12 4.62-2.35c.72-.37.69-1-.06-1.41l-4.37-2.36h-.06z" fill="#fefefe"/><path d="m61 41.12 4.64-2.35c.72-.37.69-1-.06-1.41l-4.44-2.36h-.06z" fill="#fefefe"/><path d="m32.4 33.65a5.42 5.42 0 0 1 5.4 5.4v2.17a5.41 5.41 0 0 1 -5.4 5.39 5.41 5.41 0 0 1 -5.4-5.39v-.29l3.54-1.8c.72-.36.69-1-.07-1.41l-2.69-1.46a5.39 5.39 0 0 1 4.61-2.61" fill="#304da1"/><path d="m64.05 34.16a5.41 5.41 0 0 1 5.4 5.39v2.17a5.42 5.42 0 0 1 -5.4 5.4 5.41 5.41 0 0 1 -5.39-5.4v-.29l3.54-1.79c.72-.37.69-1-.06-1.41l-2.7-1.46a5.4 5.4 0 0 1 4.61-2.61" fill="#304da1"/><path d="m53.61 38.78c3.76 0 6.81 2.11 6.81 4.72 0 1.45-1.5 5.19-3.14 5.91-2 .86-3.27-.9-7.66-2.08a3.85 3.85 0 0 1 -2.82-3.83c0-2.61 3.05-4.72 6.81-4.72" fill="#ffb06b"/><path d="m56.85 49.56c-1.76.45-3.17-1.14-7.23-2.23a3.85 3.85 0 0 1 -2.82-3.83c0-2.6 3-4.7 6.76-4.72 2.94 3.46 4 7.06 3.29 10.78" fill="url(#e)"/><path d="m57.49 40.56c.26-.21.72 0 1 .45s.35 1 .08 1.21-.72 0-1-.44-.34-1-.08-1.22" fill="#ffe4b8"/><path d="m43.27 98.83a31.91 31.91 0 0 1 -3.27.17 34.79 34.79 0 0 1 -27.65-13.76c1.24-8.1 9.53-15.49 20.41-10.13a84.16 84.16 0 0 0 22.48 7c4.46.7 3.32 4.63.6 8.18a26.09 26.09 0 0 1 -12.57 8.59" fill="url(#f)" opacity=".53"/><path d="m70.74 52.06 14.35 1.18 14.36 1.18c1.06.09 1.41.91.87 1.9a134.71 134.71 0 0 0 -8.54 18.68 130.66 130.66 0 0 0 -5 18.69 2.23 2.23 0 0 1 -2.05 1.75c-4.4.08-8.86.23-13.35.67s-9.14 1.18-13.75 2a1.46 1.46 0 0 1 -1.73-1.66 136.19 136.19 0 0 1 3.24-21.27 93 93 0 0 1 8.38-21.31 3.73 3.73 0 0 1 3.21-1.8" fill="url(#g)"/><path d="m68.66 57.83 7 .38 7.06.41-.65 1.28c-2.35-.13-4.7-.26-7.05-.37l-7.02-.33c.21-.46.43-.91.66-1.37m-3.22 7.43c4.45.06 8.9.13 13.34.27s8.84.37 13.25.6l-.54 1.24c-4.39-.22-8.8-.41-13.22-.53s-8.88-.16-13.33-.2c.16-.46.33-.92.5-1.38zm-1.17 3.32c4.44 0 8.89 0 13.31.08s8.81.26 13.19.46c-.16.41-.33.83-.5 1.24-4.36-.18-8.75-.34-13.15-.4s-8.85 0-13.28 0zm-1 3.34c4.43-.09 8.86-.17 13.26-.14s8.76.17 13.12.33c-.15.41-.31.83-.46 1.25-4.34-.15-8.7-.27-13.08-.28s-8.81.11-13.23.22q.18-.69.36-1.38zm-.91 3.33c4.41-.16 8.81-.31 13.2-.34s8.7.07 13 .2c-.15.41-.29.83-.43 1.24-4.3-.11-8.63-.2-13-.14s-8.77.23-13.16.43c.13-.46.25-.93.36-1.39zm-.79 3.33c4.38-.24 8.75-.47 13.11-.56s8.63 0 12.91.08c-.14.42-.26.84-.39 1.25-4.26-.08-8.55-.13-12.86 0s-8.7.37-13.08.64c.08-.48.17-.94.28-1.41zm9.49 14c2.21-.17 4.41-.33 6.59-.43s4.35-.15 6.47-.15c-.07.41-.14.81-.2 1.22-2.15 0-4.31.06-6.47.16s-4.37.28-6.57.47c.05-.46.12-.85.12-1.31zm-.76-37.73c2.34.15 4.67.32 7 .48l7 .49c-.24.43-.49.85-.73 1.27l-7-.46-7-.43c.2-.45.43-.9.73-1.35z" fill="#a19674"/><path d="m89.63 81.78c-1 3.55-1.85 7.11-2.58 10.63a12.18 12.18 0 0 1 -5-2.23c-3-2.17-3.64-4.61-2.71-6 1.61-2.31 6 .83 10.24-2.45" fill="#c4bba1"/><path d="m91.05 77c-4.64 6.52-9.86 4.12-11.65 7.18-1 1.61-.32 3.82 2.75 5 4.76 1.82 10.31.46 10.85-6.62a8 8 0 0 0 -1.95-5.56" fill="url(#h)"/><path d="m33.66 68.58a111 111 0 0 0 22.48 12.71c4.46 1.84 3.32 5.48.6 8.33-8.06 8.45-24.78 6.21-35.45-.57-16.62-10.56-5.69-34 12.37-20.47" fill="url(#i)"/></g></svg>